<svg width="32" height="32" viewBox="0 0 32 32" fill="none" xmlns="http://www.w3.org/2000/svg">
<path d="M0 16C0 7.16344 7.16344 0 16 0C24.8366 0 32 7.16344 32 16C32 24.8366 24.8366 32 16 32C7.16344 32 0 24.8366 0 16Z" fill="white"/>
<path d="M0.5 16C0.5 7.43959 7.43959 0.5 16 0.5C24.5604 0.5 31.5 7.43959 31.5 16C31.5 24.5604 24.5604 31.5 16 31.5C7.43959 31.5 0.5 24.5604 0.5 16Z" stroke="black" stroke-opacity="0.12"/>
<path d="M15.0547 14.6016H16.0859C16.5911 14.6016 17.0078 14.5182 17.3359 14.3516C17.6693 14.1797 17.9167 13.9479 18.0781 13.6562C18.2448 13.3594 18.3281 13.026 18.3281 12.6562C18.3281 12.2188 18.2552 11.8516 18.1094 11.5547C17.9635 11.2578 17.7448 11.0339 17.4531 10.8828C17.1615 10.7318 16.7917 10.6562 16.3438 10.6562C15.9375 10.6562 15.5781 10.737 15.2656 10.8984C14.9583 11.0547 14.7161 11.2786 14.5391 11.5703C14.3672 11.862 14.2812 12.2057 14.2812 12.6016H12.8359C12.8359 12.0234 12.9818 11.4974 13.2734 11.0234C13.5651 10.5495 13.974 10.1719 14.5 9.89062C15.0312 9.60938 15.6458 9.46875 16.3438 9.46875C17.0312 9.46875 17.6328 9.59115 18.1484 9.83594C18.6641 10.0755 19.0651 10.4349 19.3516 10.9141C19.638 11.388 19.7812 11.9792 19.7812 12.6875C19.7812 12.974 19.7135 13.2812 19.5781 13.6094C19.4479 13.9323 19.2422 14.2344 18.9609 14.5156C18.6849 14.7969 18.3255 15.0286 17.8828 15.2109C17.4401 15.388 16.9089 15.4766 16.2891 15.4766H15.0547V14.6016ZM15.0547 15.7891V14.9219H16.2891C17.013 14.9219 17.612 15.0078 18.0859 15.1797C18.5599 15.3516 18.9323 15.5807 19.2031 15.8672C19.4792 16.1536 19.6719 16.4688 19.7812 16.8125C19.8958 17.151 19.9531 17.4896 19.9531 17.8281C19.9531 18.3594 19.862 18.8307 19.6797 19.2422C19.5026 19.6536 19.25 20.0026 18.9219 20.2891C18.599 20.5755 18.2188 20.7917 17.7812 20.9375C17.3438 21.0833 16.8672 21.1562 16.3516 21.1562C15.8568 21.1562 15.3906 21.0859 14.9531 20.9453C14.5208 20.8047 14.138 20.6016 13.8047 20.3359C13.4714 20.0651 13.2109 19.7344 13.0234 19.3438C12.8359 18.9479 12.7422 18.4974 12.7422 17.9922H14.1875C14.1875 18.388 14.2734 18.7344 14.4453 19.0312C14.6224 19.3281 14.8724 19.5599 15.1953 19.7266C15.5234 19.888 15.9089 19.9688 16.3516 19.9688C16.7943 19.9688 17.1745 19.8932 17.4922 19.7422C17.8151 19.5859 18.0625 19.3516 18.2344 19.0391C18.4115 18.7266 18.5 18.3333 18.5 17.8594C18.5 17.3854 18.401 16.9974 18.2031 16.6953C18.0052 16.388 17.724 16.1615 17.3594 16.0156C17 15.8646 16.5755 15.7891 16.0859 15.7891H15.0547Z" fill="#1F1E1E"/>
</svg>
