<svg width="412" height="41" viewBox="0 0 412 41" fill="none" xmlns="http://www.w3.org/2000/svg">
<path d="M152.922 14.7578C152.922 14.5495 152.875 14.3568 152.781 14.1797C152.693 13.9974 152.508 13.8333 152.227 13.6875C151.951 13.5365 151.534 13.4062 150.977 13.2969C150.508 13.1979 150.083 13.0807 149.703 12.9453C149.328 12.8099 149.008 12.6458 148.742 12.4531C148.482 12.2604 148.281 12.0339 148.141 11.7734C148 11.513 147.93 11.2083 147.93 10.8594C147.93 10.526 148.003 10.2109 148.148 9.91406C148.299 9.61719 148.51 9.35417 148.781 9.125C149.057 8.89583 149.388 8.71615 149.773 8.58594C150.159 8.45573 150.589 8.39062 151.062 8.39062C151.74 8.39062 152.318 8.51042 152.797 8.75C153.276 8.98958 153.643 9.3099 153.898 9.71094C154.154 10.1068 154.281 10.5469 154.281 11.0312H152.836C152.836 10.7969 152.766 10.5703 152.625 10.3516C152.49 10.1276 152.289 9.94271 152.023 9.79688C151.763 9.65104 151.443 9.57812 151.062 9.57812C150.661 9.57812 150.336 9.64062 150.086 9.76562C149.841 9.88542 149.661 10.0391 149.547 10.2266C149.438 10.4141 149.383 10.612 149.383 10.8203C149.383 10.9766 149.409 11.1172 149.461 11.2422C149.518 11.362 149.617 11.474 149.758 11.5781C149.898 11.6771 150.096 11.7708 150.352 11.8594C150.607 11.9479 150.932 12.0365 151.328 12.125C152.021 12.2812 152.591 12.4688 153.039 12.6875C153.487 12.9062 153.82 13.1745 154.039 13.4922C154.258 13.8099 154.367 14.1953 154.367 14.6484C154.367 15.0182 154.289 15.3568 154.133 15.6641C153.982 15.9714 153.76 16.237 153.469 16.4609C153.182 16.6797 152.839 16.8516 152.438 16.9766C152.042 17.0964 151.596 17.1562 151.102 17.1562C150.357 17.1562 149.727 17.0234 149.211 16.7578C148.695 16.4922 148.305 16.1484 148.039 15.7266C147.773 15.3047 147.641 14.8594 147.641 14.3906H149.094C149.115 14.7865 149.229 15.1016 149.438 15.3359C149.646 15.5651 149.901 15.7292 150.203 15.8281C150.505 15.9219 150.805 15.9688 151.102 15.9688C151.497 15.9688 151.828 15.9167 152.094 15.8125C152.365 15.7083 152.57 15.5651 152.711 15.3828C152.852 15.2005 152.922 14.9922 152.922 14.7578ZM159.805 8.54688V9.65625H155.234V8.54688H159.805ZM156.781 6.49219H158.227V14.9062C158.227 15.1927 158.271 15.4089 158.359 15.5547C158.448 15.7005 158.562 15.7969 158.703 15.8438C158.844 15.8906 158.995 15.9141 159.156 15.9141C159.276 15.9141 159.401 15.9036 159.531 15.8828C159.667 15.8568 159.768 15.8359 159.836 15.8203L159.844 17C159.729 17.0365 159.578 17.0703 159.391 17.1016C159.208 17.138 158.987 17.1562 158.727 17.1562C158.372 17.1562 158.047 17.0859 157.75 16.9453C157.453 16.8047 157.216 16.5703 157.039 16.2422C156.867 15.9089 156.781 15.4609 156.781 14.8984V6.49219ZM166.484 15.5547V11.2031C166.484 10.8698 166.417 10.5807 166.281 10.3359C166.151 10.0859 165.953 9.89323 165.688 9.75781C165.422 9.6224 165.094 9.55469 164.703 9.55469C164.339 9.55469 164.018 9.61719 163.742 9.74219C163.471 9.86719 163.258 10.0312 163.102 10.2344C162.951 10.4375 162.875 10.6562 162.875 10.8906H161.43C161.43 10.5885 161.508 10.2891 161.664 9.99219C161.82 9.69531 162.044 9.42708 162.336 9.1875C162.633 8.94271 162.987 8.75 163.398 8.60938C163.815 8.46354 164.279 8.39062 164.789 8.39062C165.404 8.39062 165.945 8.49479 166.414 8.70312C166.888 8.91146 167.258 9.22656 167.523 9.64844C167.794 10.0651 167.93 10.5885 167.93 11.2188V15.1562C167.93 15.4375 167.953 15.737 168 16.0547C168.052 16.3724 168.128 16.6458 168.227 16.875V17H166.719C166.646 16.8333 166.589 16.612 166.547 16.3359C166.505 16.0547 166.484 15.7943 166.484 15.5547ZM166.734 11.875L166.75 12.8906H165.289C164.878 12.8906 164.51 12.9245 164.188 12.9922C163.865 13.0547 163.594 13.151 163.375 13.2812C163.156 13.4115 162.99 13.5755 162.875 13.7734C162.76 13.9661 162.703 14.1927 162.703 14.4531C162.703 14.7188 162.763 14.9609 162.883 15.1797C163.003 15.3984 163.182 15.5729 163.422 15.7031C163.667 15.8281 163.966 15.8906 164.32 15.8906C164.763 15.8906 165.154 15.7969 165.492 15.6094C165.831 15.4219 166.099 15.1927 166.297 14.9219C166.5 14.651 166.609 14.388 166.625 14.1328L167.242 14.8281C167.206 15.0469 167.107 15.2891 166.945 15.5547C166.784 15.8203 166.568 16.0755 166.297 16.3203C166.031 16.5599 165.714 16.7604 165.344 16.9219C164.979 17.0781 164.568 17.1562 164.109 17.1562C163.536 17.1562 163.034 17.0443 162.602 16.8203C162.174 16.5964 161.841 16.2969 161.602 15.9219C161.367 15.5417 161.25 15.1172 161.25 14.6484C161.25 14.1953 161.339 13.7969 161.516 13.4531C161.693 13.1042 161.948 12.8151 162.281 12.5859C162.615 12.3516 163.016 12.1745 163.484 12.0547C163.953 11.9349 164.477 11.875 165.055 11.875H166.734ZM157.836 33.875V41H156.391V32.5469H157.797L157.836 33.875ZM160.477 32.5L160.469 33.8438C160.349 33.8177 160.234 33.8021 160.125 33.7969C160.021 33.7865 159.901 33.7812 159.766 33.7812C159.432 33.7812 159.138 33.8333 158.883 33.9375C158.628 34.0417 158.411 34.1875 158.234 34.375C158.057 34.5625 157.917 34.7865 157.812 35.0469C157.714 35.3021 157.648 35.5833 157.617 35.8906L157.211 36.125C157.211 35.6146 157.26 35.1354 157.359 34.6875C157.464 34.2396 157.622 33.8438 157.836 33.5C158.049 33.151 158.32 32.8802 158.648 32.6875C158.982 32.4896 159.378 32.3906 159.836 32.3906C159.94 32.3906 160.06 32.4036 160.195 32.4297C160.331 32.4505 160.424 32.474 160.477 32.5Z" fill="white"/>
<path d="M200.922 14.7578C200.922 14.5495 200.875 14.3568 200.781 14.1797C200.693 13.9974 200.508 13.8333 200.227 13.6875C199.951 13.5365 199.534 13.4062 198.977 13.2969C198.508 13.1979 198.083 13.0807 197.703 12.9453C197.328 12.8099 197.008 12.6458 196.742 12.4531C196.482 12.2604 196.281 12.0339 196.141 11.7734C196 11.513 195.93 11.2083 195.93 10.8594C195.93 10.526 196.003 10.2109 196.148 9.91406C196.299 9.61719 196.51 9.35417 196.781 9.125C197.057 8.89583 197.388 8.71615 197.773 8.58594C198.159 8.45573 198.589 8.39062 199.062 8.39062C199.74 8.39062 200.318 8.51042 200.797 8.75C201.276 8.98958 201.643 9.3099 201.898 9.71094C202.154 10.1068 202.281 10.5469 202.281 11.0312H200.836C200.836 10.7969 200.766 10.5703 200.625 10.3516C200.49 10.1276 200.289 9.94271 200.023 9.79688C199.763 9.65104 199.443 9.57812 199.062 9.57812C198.661 9.57812 198.336 9.64062 198.086 9.76562C197.841 9.88542 197.661 10.0391 197.547 10.2266C197.438 10.4141 197.383 10.612 197.383 10.8203C197.383 10.9766 197.409 11.1172 197.461 11.2422C197.518 11.362 197.617 11.474 197.758 11.5781C197.898 11.6771 198.096 11.7708 198.352 11.8594C198.607 11.9479 198.932 12.0365 199.328 12.125C200.021 12.2812 200.591 12.4688 201.039 12.6875C201.487 12.9062 201.82 13.1745 202.039 13.4922C202.258 13.8099 202.367 14.1953 202.367 14.6484C202.367 15.0182 202.289 15.3568 202.133 15.6641C201.982 15.9714 201.76 16.237 201.469 16.4609C201.182 16.6797 200.839 16.8516 200.438 16.9766C200.042 17.0964 199.596 17.1562 199.102 17.1562C198.357 17.1562 197.727 17.0234 197.211 16.7578C196.695 16.4922 196.305 16.1484 196.039 15.7266C195.773 15.3047 195.641 14.8594 195.641 14.3906H197.094C197.115 14.7865 197.229 15.1016 197.438 15.3359C197.646 15.5651 197.901 15.7292 198.203 15.8281C198.505 15.9219 198.805 15.9688 199.102 15.9688C199.497 15.9688 199.828 15.9167 200.094 15.8125C200.365 15.7083 200.57 15.5651 200.711 15.3828C200.852 15.2005 200.922 14.9922 200.922 14.7578ZM207.805 8.54688V9.65625H203.234V8.54688H207.805ZM204.781 6.49219H206.227V14.9062C206.227 15.1927 206.271 15.4089 206.359 15.5547C206.448 15.7005 206.562 15.7969 206.703 15.8438C206.844 15.8906 206.995 15.9141 207.156 15.9141C207.276 15.9141 207.401 15.9036 207.531 15.8828C207.667 15.8568 207.768 15.8359 207.836 15.8203L207.844 17C207.729 17.0365 207.578 17.0703 207.391 17.1016C207.208 17.138 206.987 17.1562 206.727 17.1562C206.372 17.1562 206.047 17.0859 205.75 16.9453C205.453 16.8047 205.216 16.5703 205.039 16.2422C204.867 15.9089 204.781 15.4609 204.781 14.8984V6.49219ZM214.484 15.5547V11.2031C214.484 10.8698 214.417 10.5807 214.281 10.3359C214.151 10.0859 213.953 9.89323 213.688 9.75781C213.422 9.6224 213.094 9.55469 212.703 9.55469C212.339 9.55469 212.018 9.61719 211.742 9.74219C211.471 9.86719 211.258 10.0312 211.102 10.2344C210.951 10.4375 210.875 10.6562 210.875 10.8906H209.43C209.43 10.5885 209.508 10.2891 209.664 9.99219C209.82 9.69531 210.044 9.42708 210.336 9.1875C210.633 8.94271 210.987 8.75 211.398 8.60938C211.815 8.46354 212.279 8.39062 212.789 8.39062C213.404 8.39062 213.945 8.49479 214.414 8.70312C214.888 8.91146 215.258 9.22656 215.523 9.64844C215.794 10.0651 215.93 10.5885 215.93 11.2188V15.1562C215.93 15.4375 215.953 15.737 216 16.0547C216.052 16.3724 216.128 16.6458 216.227 16.875V17H214.719C214.646 16.8333 214.589 16.612 214.547 16.3359C214.505 16.0547 214.484 15.7943 214.484 15.5547ZM214.734 11.875L214.75 12.8906H213.289C212.878 12.8906 212.51 12.9245 212.188 12.9922C211.865 13.0547 211.594 13.151 211.375 13.2812C211.156 13.4115 210.99 13.5755 210.875 13.7734C210.76 13.9661 210.703 14.1927 210.703 14.4531C210.703 14.7188 210.763 14.9609 210.883 15.1797C211.003 15.3984 211.182 15.5729 211.422 15.7031C211.667 15.8281 211.966 15.8906 212.32 15.8906C212.763 15.8906 213.154 15.7969 213.492 15.6094C213.831 15.4219 214.099 15.1927 214.297 14.9219C214.5 14.651 214.609 14.388 214.625 14.1328L215.242 14.8281C215.206 15.0469 215.107 15.2891 214.945 15.5547C214.784 15.8203 214.568 16.0755 214.297 16.3203C214.031 16.5599 213.714 16.7604 213.344 16.9219C212.979 17.0781 212.568 17.1562 212.109 17.1562C211.536 17.1562 211.034 17.0443 210.602 16.8203C210.174 16.5964 209.841 16.2969 209.602 15.9219C209.367 15.5417 209.25 15.1172 209.25 14.6484C209.25 14.1953 209.339 13.7969 209.516 13.4531C209.693 13.1042 209.948 12.8151 210.281 12.5859C210.615 12.3516 211.016 12.1745 211.484 12.0547C211.953 11.9349 212.477 11.875 213.055 11.875H214.734ZM205.836 33.875V41H204.391V32.5469H205.797L205.836 33.875ZM208.477 32.5L208.469 33.8438C208.349 33.8177 208.234 33.8021 208.125 33.7969C208.021 33.7865 207.901 33.7812 207.766 33.7812C207.432 33.7812 207.138 33.8333 206.883 33.9375C206.628 34.0417 206.411 34.1875 206.234 34.375C206.057 34.5625 205.917 34.7865 205.812 35.0469C205.714 35.3021 205.648 35.5833 205.617 35.8906L205.211 36.125C205.211 35.6146 205.26 35.1354 205.359 34.6875C205.464 34.2396 205.622 33.8438 205.836 33.5C206.049 33.151 206.32 32.8802 206.648 32.6875C206.982 32.4896 207.378 32.3906 207.836 32.3906C207.94 32.3906 208.06 32.4036 208.195 32.4297C208.331 32.4505 208.424 32.474 208.477 32.5Z" fill="white"/>
<path d="M248.922 14.7578C248.922 14.5495 248.875 14.3568 248.781 14.1797C248.693 13.9974 248.508 13.8333 248.227 13.6875C247.951 13.5365 247.534 13.4062 246.977 13.2969C246.508 13.1979 246.083 13.0807 245.703 12.9453C245.328 12.8099 245.008 12.6458 244.742 12.4531C244.482 12.2604 244.281 12.0339 244.141 11.7734C244 11.513 243.93 11.2083 243.93 10.8594C243.93 10.526 244.003 10.2109 244.148 9.91406C244.299 9.61719 244.51 9.35417 244.781 9.125C245.057 8.89583 245.388 8.71615 245.773 8.58594C246.159 8.45573 246.589 8.39062 247.062 8.39062C247.74 8.39062 248.318 8.51042 248.797 8.75C249.276 8.98958 249.643 9.3099 249.898 9.71094C250.154 10.1068 250.281 10.5469 250.281 11.0312H248.836C248.836 10.7969 248.766 10.5703 248.625 10.3516C248.49 10.1276 248.289 9.94271 248.023 9.79688C247.763 9.65104 247.443 9.57812 247.062 9.57812C246.661 9.57812 246.336 9.64062 246.086 9.76562C245.841 9.88542 245.661 10.0391 245.547 10.2266C245.438 10.4141 245.383 10.612 245.383 10.8203C245.383 10.9766 245.409 11.1172 245.461 11.2422C245.518 11.362 245.617 11.474 245.758 11.5781C245.898 11.6771 246.096 11.7708 246.352 11.8594C246.607 11.9479 246.932 12.0365 247.328 12.125C248.021 12.2812 248.591 12.4688 249.039 12.6875C249.487 12.9062 249.82 13.1745 250.039 13.4922C250.258 13.8099 250.367 14.1953 250.367 14.6484C250.367 15.0182 250.289 15.3568 250.133 15.6641C249.982 15.9714 249.76 16.237 249.469 16.4609C249.182 16.6797 248.839 16.8516 248.438 16.9766C248.042 17.0964 247.596 17.1562 247.102 17.1562C246.357 17.1562 245.727 17.0234 245.211 16.7578C244.695 16.4922 244.305 16.1484 244.039 15.7266C243.773 15.3047 243.641 14.8594 243.641 14.3906H245.094C245.115 14.7865 245.229 15.1016 245.438 15.3359C245.646 15.5651 245.901 15.7292 246.203 15.8281C246.505 15.9219 246.805 15.9688 247.102 15.9688C247.497 15.9688 247.828 15.9167 248.094 15.8125C248.365 15.7083 248.57 15.5651 248.711 15.3828C248.852 15.2005 248.922 14.9922 248.922 14.7578ZM255.805 8.54688V9.65625H251.234V8.54688H255.805ZM252.781 6.49219H254.227V14.9062C254.227 15.1927 254.271 15.4089 254.359 15.5547C254.448 15.7005 254.562 15.7969 254.703 15.8438C254.844 15.8906 254.995 15.9141 255.156 15.9141C255.276 15.9141 255.401 15.9036 255.531 15.8828C255.667 15.8568 255.768 15.8359 255.836 15.8203L255.844 17C255.729 17.0365 255.578 17.0703 255.391 17.1016C255.208 17.138 254.987 17.1562 254.727 17.1562C254.372 17.1562 254.047 17.0859 253.75 16.9453C253.453 16.8047 253.216 16.5703 253.039 16.2422C252.867 15.9089 252.781 15.4609 252.781 14.8984V6.49219ZM262.484 15.5547V11.2031C262.484 10.8698 262.417 10.5807 262.281 10.3359C262.151 10.0859 261.953 9.89323 261.688 9.75781C261.422 9.6224 261.094 9.55469 260.703 9.55469C260.339 9.55469 260.018 9.61719 259.742 9.74219C259.471 9.86719 259.258 10.0312 259.102 10.2344C258.951 10.4375 258.875 10.6562 258.875 10.8906H257.43C257.43 10.5885 257.508 10.2891 257.664 9.99219C257.82 9.69531 258.044 9.42708 258.336 9.1875C258.633 8.94271 258.987 8.75 259.398 8.60938C259.815 8.46354 260.279 8.39062 260.789 8.39062C261.404 8.39062 261.945 8.49479 262.414 8.70312C262.888 8.91146 263.258 9.22656 263.523 9.64844C263.794 10.0651 263.93 10.5885 263.93 11.2188V15.1562C263.93 15.4375 263.953 15.737 264 16.0547C264.052 16.3724 264.128 16.6458 264.227 16.875V17H262.719C262.646 16.8333 262.589 16.612 262.547 16.3359C262.505 16.0547 262.484 15.7943 262.484 15.5547ZM262.734 11.875L262.75 12.8906H261.289C260.878 12.8906 260.51 12.9245 260.188 12.9922C259.865 13.0547 259.594 13.151 259.375 13.2812C259.156 13.4115 258.99 13.5755 258.875 13.7734C258.76 13.9661 258.703 14.1927 258.703 14.4531C258.703 14.7188 258.763 14.9609 258.883 15.1797C259.003 15.3984 259.182 15.5729 259.422 15.7031C259.667 15.8281 259.966 15.8906 260.32 15.8906C260.763 15.8906 261.154 15.7969 261.492 15.6094C261.831 15.4219 262.099 15.1927 262.297 14.9219C262.5 14.651 262.609 14.388 262.625 14.1328L263.242 14.8281C263.206 15.0469 263.107 15.2891 262.945 15.5547C262.784 15.8203 262.568 16.0755 262.297 16.3203C262.031 16.5599 261.714 16.7604 261.344 16.9219C260.979 17.0781 260.568 17.1562 260.109 17.1562C259.536 17.1562 259.034 17.0443 258.602 16.8203C258.174 16.5964 257.841 16.2969 257.602 15.9219C257.367 15.5417 257.25 15.1172 257.25 14.6484C257.25 14.1953 257.339 13.7969 257.516 13.4531C257.693 13.1042 257.948 12.8151 258.281 12.5859C258.615 12.3516 259.016 12.1745 259.484 12.0547C259.953 11.9349 260.477 11.875 261.055 11.875H262.734ZM253.836 33.875V41H252.391V32.5469H253.797L253.836 33.875ZM256.477 32.5L256.469 33.8438C256.349 33.8177 256.234 33.8021 256.125 33.7969C256.021 33.7865 255.901 33.7812 255.766 33.7812C255.432 33.7812 255.138 33.8333 254.883 33.9375C254.628 34.0417 254.411 34.1875 254.234 34.375C254.057 34.5625 253.917 34.7865 253.812 35.0469C253.714 35.3021 253.648 35.5833 253.617 35.8906L253.211 36.125C253.211 35.6146 253.26 35.1354 253.359 34.6875C253.464 34.2396 253.622 33.8438 253.836 33.5C254.049 33.151 254.32 32.8802 254.648 32.6875C254.982 32.4896 255.378 32.3906 255.836 32.3906C255.94 32.3906 256.06 32.4036 256.195 32.4297C256.331 32.4505 256.424 32.474 256.477 32.5Z" fill="white"/>
<path d="M176.922 14.7578C176.922 14.5495 176.875 14.3568 176.781 14.1797C176.693 13.9974 176.508 13.8333 176.227 13.6875C175.951 13.5365 175.534 13.4062 174.977 13.2969C174.508 13.1979 174.083 13.0807 173.703 12.9453C173.328 12.8099 173.008 12.6458 172.742 12.4531C172.482 12.2604 172.281 12.0339 172.141 11.7734C172 11.513 171.93 11.2083 171.93 10.8594C171.93 10.526 172.003 10.2109 172.148 9.91406C172.299 9.61719 172.51 9.35417 172.781 9.125C173.057 8.89583 173.388 8.71615 173.773 8.58594C174.159 8.45573 174.589 8.39062 175.062 8.39062C175.74 8.39062 176.318 8.51042 176.797 8.75C177.276 8.98958 177.643 9.3099 177.898 9.71094C178.154 10.1068 178.281 10.5469 178.281 11.0312H176.836C176.836 10.7969 176.766 10.5703 176.625 10.3516C176.49 10.1276 176.289 9.94271 176.023 9.79688C175.763 9.65104 175.443 9.57812 175.062 9.57812C174.661 9.57812 174.336 9.64062 174.086 9.76562C173.841 9.88542 173.661 10.0391 173.547 10.2266C173.438 10.4141 173.383 10.612 173.383 10.8203C173.383 10.9766 173.409 11.1172 173.461 11.2422C173.518 11.362 173.617 11.474 173.758 11.5781C173.898 11.6771 174.096 11.7708 174.352 11.8594C174.607 11.9479 174.932 12.0365 175.328 12.125C176.021 12.2812 176.591 12.4688 177.039 12.6875C177.487 12.9062 177.82 13.1745 178.039 13.4922C178.258 13.8099 178.367 14.1953 178.367 14.6484C178.367 15.0182 178.289 15.3568 178.133 15.6641C177.982 15.9714 177.76 16.237 177.469 16.4609C177.182 16.6797 176.839 16.8516 176.438 16.9766C176.042 17.0964 175.596 17.1562 175.102 17.1562C174.357 17.1562 173.727 17.0234 173.211 16.7578C172.695 16.4922 172.305 16.1484 172.039 15.7266C171.773 15.3047 171.641 14.8594 171.641 14.3906H173.094C173.115 14.7865 173.229 15.1016 173.438 15.3359C173.646 15.5651 173.901 15.7292 174.203 15.8281C174.505 15.9219 174.805 15.9688 175.102 15.9688C175.497 15.9688 175.828 15.9167 176.094 15.8125C176.365 15.7083 176.57 15.5651 176.711 15.3828C176.852 15.2005 176.922 14.9922 176.922 14.7578ZM183.805 8.54688V9.65625H179.234V8.54688H183.805ZM180.781 6.49219H182.227V14.9062C182.227 15.1927 182.271 15.4089 182.359 15.5547C182.448 15.7005 182.562 15.7969 182.703 15.8438C182.844 15.8906 182.995 15.9141 183.156 15.9141C183.276 15.9141 183.401 15.9036 183.531 15.8828C183.667 15.8568 183.768 15.8359 183.836 15.8203L183.844 17C183.729 17.0365 183.578 17.0703 183.391 17.1016C183.208 17.138 182.987 17.1562 182.727 17.1562C182.372 17.1562 182.047 17.0859 181.75 16.9453C181.453 16.8047 181.216 16.5703 181.039 16.2422C180.867 15.9089 180.781 15.4609 180.781 14.8984V6.49219ZM190.484 15.5547V11.2031C190.484 10.8698 190.417 10.5807 190.281 10.3359C190.151 10.0859 189.953 9.89323 189.688 9.75781C189.422 9.6224 189.094 9.55469 188.703 9.55469C188.339 9.55469 188.018 9.61719 187.742 9.74219C187.471 9.86719 187.258 10.0312 187.102 10.2344C186.951 10.4375 186.875 10.6562 186.875 10.8906H185.43C185.43 10.5885 185.508 10.2891 185.664 9.99219C185.82 9.69531 186.044 9.42708 186.336 9.1875C186.633 8.94271 186.987 8.75 187.398 8.60938C187.815 8.46354 188.279 8.39062 188.789 8.39062C189.404 8.39062 189.945 8.49479 190.414 8.70312C190.888 8.91146 191.258 9.22656 191.523 9.64844C191.794 10.0651 191.93 10.5885 191.93 11.2188V15.1562C191.93 15.4375 191.953 15.737 192 16.0547C192.052 16.3724 192.128 16.6458 192.227 16.875V17H190.719C190.646 16.8333 190.589 16.612 190.547 16.3359C190.505 16.0547 190.484 15.7943 190.484 15.5547ZM190.734 11.875L190.75 12.8906H189.289C188.878 12.8906 188.51 12.9245 188.188 12.9922C187.865 13.0547 187.594 13.151 187.375 13.2812C187.156 13.4115 186.99 13.5755 186.875 13.7734C186.76 13.9661 186.703 14.1927 186.703 14.4531C186.703 14.7188 186.763 14.9609 186.883 15.1797C187.003 15.3984 187.182 15.5729 187.422 15.7031C187.667 15.8281 187.966 15.8906 188.32 15.8906C188.763 15.8906 189.154 15.7969 189.492 15.6094C189.831 15.4219 190.099 15.1927 190.297 14.9219C190.5 14.651 190.609 14.388 190.625 14.1328L191.242 14.8281C191.206 15.0469 191.107 15.2891 190.945 15.5547C190.784 15.8203 190.568 16.0755 190.297 16.3203C190.031 16.5599 189.714 16.7604 189.344 16.9219C188.979 17.0781 188.568 17.1562 188.109 17.1562C187.536 17.1562 187.034 17.0443 186.602 16.8203C186.174 16.5964 185.841 16.2969 185.602 15.9219C185.367 15.5417 185.25 15.1172 185.25 14.6484C185.25 14.1953 185.339 13.7969 185.516 13.4531C185.693 13.1042 185.948 12.8151 186.281 12.5859C186.615 12.3516 187.016 12.1745 187.484 12.0547C187.953 11.9349 188.477 11.875 189.055 11.875H190.734ZM181.836 33.875V41H180.391V32.5469H181.797L181.836 33.875ZM184.477 32.5L184.469 33.8438C184.349 33.8177 184.234 33.8021 184.125 33.7969C184.021 33.7865 183.901 33.7812 183.766 33.7812C183.432 33.7812 183.138 33.8333 182.883 33.9375C182.628 34.0417 182.411 34.1875 182.234 34.375C182.057 34.5625 181.917 34.7865 181.812 35.0469C181.714 35.3021 181.648 35.5833 181.617 35.8906L181.211 36.125C181.211 35.6146 181.26 35.1354 181.359 34.6875C181.464 34.2396 181.622 33.8438 181.836 33.5C182.049 33.151 182.32 32.8802 182.648 32.6875C182.982 32.4896 183.378 32.3906 183.836 32.3906C183.94 32.3906 184.06 32.4036 184.195 32.4297C184.331 32.4505 184.424 32.474 184.477 32.5Z" fill="white"/>
<path d="M224.922 14.7578C224.922 14.5495 224.875 14.3568 224.781 14.1797C224.693 13.9974 224.508 13.8333 224.227 13.6875C223.951 13.5365 223.534 13.4062 222.977 13.2969C222.508 13.1979 222.083 13.0807 221.703 12.9453C221.328 12.8099 221.008 12.6458 220.742 12.4531C220.482 12.2604 220.281 12.0339 220.141 11.7734C220 11.513 219.93 11.2083 219.93 10.8594C219.93 10.526 220.003 10.2109 220.148 9.91406C220.299 9.61719 220.51 9.35417 220.781 9.125C221.057 8.89583 221.388 8.71615 221.773 8.58594C222.159 8.45573 222.589 8.39062 223.062 8.39062C223.74 8.39062 224.318 8.51042 224.797 8.75C225.276 8.98958 225.643 9.3099 225.898 9.71094C226.154 10.1068 226.281 10.5469 226.281 11.0312H224.836C224.836 10.7969 224.766 10.5703 224.625 10.3516C224.49 10.1276 224.289 9.94271 224.023 9.79688C223.763 9.65104 223.443 9.57812 223.062 9.57812C222.661 9.57812 222.336 9.64062 222.086 9.76562C221.841 9.88542 221.661 10.0391 221.547 10.2266C221.438 10.4141 221.383 10.612 221.383 10.8203C221.383 10.9766 221.409 11.1172 221.461 11.2422C221.518 11.362 221.617 11.474 221.758 11.5781C221.898 11.6771 222.096 11.7708 222.352 11.8594C222.607 11.9479 222.932 12.0365 223.328 12.125C224.021 12.2812 224.591 12.4688 225.039 12.6875C225.487 12.9062 225.82 13.1745 226.039 13.4922C226.258 13.8099 226.367 14.1953 226.367 14.6484C226.367 15.0182 226.289 15.3568 226.133 15.6641C225.982 15.9714 225.76 16.237 225.469 16.4609C225.182 16.6797 224.839 16.8516 224.438 16.9766C224.042 17.0964 223.596 17.1562 223.102 17.1562C222.357 17.1562 221.727 17.0234 221.211 16.7578C220.695 16.4922 220.305 16.1484 220.039 15.7266C219.773 15.3047 219.641 14.8594 219.641 14.3906H221.094C221.115 14.7865 221.229 15.1016 221.438 15.3359C221.646 15.5651 221.901 15.7292 222.203 15.8281C222.505 15.9219 222.805 15.9688 223.102 15.9688C223.497 15.9688 223.828 15.9167 224.094 15.8125C224.365 15.7083 224.57 15.5651 224.711 15.3828C224.852 15.2005 224.922 14.9922 224.922 14.7578ZM231.805 8.54688V9.65625H227.234V8.54688H231.805ZM228.781 6.49219H230.227V14.9062C230.227 15.1927 230.271 15.4089 230.359 15.5547C230.448 15.7005 230.562 15.7969 230.703 15.8438C230.844 15.8906 230.995 15.9141 231.156 15.9141C231.276 15.9141 231.401 15.9036 231.531 15.8828C231.667 15.8568 231.768 15.8359 231.836 15.8203L231.844 17C231.729 17.0365 231.578 17.0703 231.391 17.1016C231.208 17.138 230.987 17.1562 230.727 17.1562C230.372 17.1562 230.047 17.0859 229.75 16.9453C229.453 16.8047 229.216 16.5703 229.039 16.2422C228.867 15.9089 228.781 15.4609 228.781 14.8984V6.49219ZM238.484 15.5547V11.2031C238.484 10.8698 238.417 10.5807 238.281 10.3359C238.151 10.0859 237.953 9.89323 237.688 9.75781C237.422 9.6224 237.094 9.55469 236.703 9.55469C236.339 9.55469 236.018 9.61719 235.742 9.74219C235.471 9.86719 235.258 10.0312 235.102 10.2344C234.951 10.4375 234.875 10.6562 234.875 10.8906H233.43C233.43 10.5885 233.508 10.2891 233.664 9.99219C233.82 9.69531 234.044 9.42708 234.336 9.1875C234.633 8.94271 234.987 8.75 235.398 8.60938C235.815 8.46354 236.279 8.39062 236.789 8.39062C237.404 8.39062 237.945 8.49479 238.414 8.70312C238.888 8.91146 239.258 9.22656 239.523 9.64844C239.794 10.0651 239.93 10.5885 239.93 11.2188V15.1562C239.93 15.4375 239.953 15.737 240 16.0547C240.052 16.3724 240.128 16.6458 240.227 16.875V17H238.719C238.646 16.8333 238.589 16.612 238.547 16.3359C238.505 16.0547 238.484 15.7943 238.484 15.5547ZM238.734 11.875L238.75 12.8906H237.289C236.878 12.8906 236.51 12.9245 236.188 12.9922C235.865 13.0547 235.594 13.151 235.375 13.2812C235.156 13.4115 234.99 13.5755 234.875 13.7734C234.76 13.9661 234.703 14.1927 234.703 14.4531C234.703 14.7188 234.763 14.9609 234.883 15.1797C235.003 15.3984 235.182 15.5729 235.422 15.7031C235.667 15.8281 235.966 15.8906 236.32 15.8906C236.763 15.8906 237.154 15.7969 237.492 15.6094C237.831 15.4219 238.099 15.1927 238.297 14.9219C238.5 14.651 238.609 14.388 238.625 14.1328L239.242 14.8281C239.206 15.0469 239.107 15.2891 238.945 15.5547C238.784 15.8203 238.568 16.0755 238.297 16.3203C238.031 16.5599 237.714 16.7604 237.344 16.9219C236.979 17.0781 236.568 17.1562 236.109 17.1562C235.536 17.1562 235.034 17.0443 234.602 16.8203C234.174 16.5964 233.841 16.2969 233.602 15.9219C233.367 15.5417 233.25 15.1172 233.25 14.6484C233.25 14.1953 233.339 13.7969 233.516 13.4531C233.693 13.1042 233.948 12.8151 234.281 12.5859C234.615 12.3516 235.016 12.1745 235.484 12.0547C235.953 11.9349 236.477 11.875 237.055 11.875H238.734ZM229.836 33.875V41H228.391V32.5469H229.797L229.836 33.875ZM232.477 32.5L232.469 33.8438C232.349 33.8177 232.234 33.8021 232.125 33.7969C232.021 33.7865 231.901 33.7812 231.766 33.7812C231.432 33.7812 231.138 33.8333 230.883 33.9375C230.628 34.0417 230.411 34.1875 230.234 34.375C230.057 34.5625 229.917 34.7865 229.812 35.0469C229.714 35.3021 229.648 35.5833 229.617 35.8906L229.211 36.125C229.211 35.6146 229.26 35.1354 229.359 34.6875C229.464 34.2396 229.622 33.8438 229.836 33.5C230.049 33.151 230.32 32.8802 230.648 32.6875C230.982 32.4896 231.378 32.3906 231.836 32.3906C231.94 32.3906 232.06 32.4036 232.195 32.4297C232.331 32.4505 232.424 32.474 232.477 32.5Z" fill="white"/>
</svg>
