<svg width="32" height="32" viewBox="0 0 32 32" fill="none" xmlns="http://www.w3.org/2000/svg">
<path d="M0 16C0 7.16344 7.16344 0 16 0C24.8366 0 32 7.16344 32 16C32 24.8366 24.8366 32 16 32C7.16344 32 0 24.8366 0 16Z" fill="white"/>
<path d="M0.5 16C0.5 7.43959 7.43959 0.5 16 0.5C24.5604 0.5 31.5 7.43959 31.5 16C31.5 24.5604 24.5604 31.5 16 31.5C7.43959 31.5 0.5 24.5604 0.5 16Z" stroke="black" stroke-opacity="0.12"/>
<path d="M20.6328 17.1719V18.3594H12.4141V17.5078L17.5078 9.625H18.6875L17.4219 11.9062L14.0547 17.1719H20.6328ZM19.0469 9.625V21H17.6016V9.625H19.0469Z" fill="#1F1E1E"/>
</svg>
