<svg width="182" height="22" viewBox="0 0 182 22" fill="none" xmlns="http://www.w3.org/2000/svg">
<g clip-path="url(#clip0_4_2055)">
<path d="M69.1297 5.0628C68.6727 5.60324 67.9415 6.0295 67.2102 5.9686C67.1188 5.23787 67.4768 4.46147 67.8958 3.98192C68.3528 3.42626 69.1526 3.03045 69.8 3C69.8762 3.76118 69.5792 4.50714 69.1297 5.0628ZM69.7924 6.11323C68.7336 6.05233 67.8272 6.71456 67.3245 6.71456C66.8141 6.71456 66.0448 6.14367 65.2069 6.1589C64.1176 6.17412 63.1045 6.79068 62.5485 7.7726C61.4059 9.73644 62.2514 12.6441 63.3559 14.2426C63.8967 15.0343 64.5442 15.902 65.3973 15.8716C66.2047 15.8411 66.5247 15.3463 67.4997 15.3463C68.4823 15.3463 68.7641 15.8716 69.6172 15.8563C70.5008 15.8411 71.0569 15.0647 71.5977 14.2731C72.2147 13.3749 72.4661 12.4995 72.4813 12.4539C72.4661 12.4386 70.775 11.7916 70.7598 9.84301C70.7446 8.21408 72.0928 7.43768 72.1538 7.39201C71.392 6.26546 70.2038 6.14367 69.7924 6.11323ZM75.909 3.9058V15.7726H77.7524V11.7155H80.3041C82.635 11.7155 84.2727 10.117 84.2727 7.80304C84.2727 5.48906 82.6655 3.9058 80.3651 3.9058H75.909ZM77.7524 5.45861H79.8776C81.4772 5.45861 82.3913 6.31113 82.3913 7.81066C82.3913 9.31018 81.4772 10.1703 79.87 10.1703H77.7524V5.45861ZM87.6395 15.8639C88.7973 15.8639 89.8713 15.2778 90.3588 14.3492H90.3969V15.7726H92.1032V9.86584C92.1032 8.15319 90.7321 7.04948 88.6221 7.04948C86.6645 7.04948 85.2172 8.16841 85.1639 9.70599H86.8245C86.9616 8.97526 87.6395 8.49572 88.5688 8.49572C89.6961 8.49572 90.3284 9.02093 90.3284 9.98763V10.6422L88.028 10.7793C85.8876 10.9087 84.7297 11.784 84.7297 13.3064C84.7297 14.844 85.9256 15.8639 87.6395 15.8639ZM88.1346 14.4558C87.152 14.4558 86.5274 13.9838 86.5274 13.2607C86.5274 12.5147 87.1292 12.0809 88.2793 12.0124L90.3284 11.883V12.5528C90.3284 13.6641 89.3838 14.4558 88.1346 14.4558ZM94.3807 19C96.1784 19 97.0239 18.3149 97.7627 16.2369L101 7.16365H99.1262L96.9553 14.1741H96.9172L94.7463 7.16365H92.8192L95.9422 15.803L95.7747 16.3283C95.4928 17.2188 95.0358 17.5614 94.2208 17.5614C94.076 17.5614 93.7942 17.5461 93.6799 17.5309V18.9543C93.7866 18.9848 94.2436 19 94.3807 19Z" fill="black"/>
</g>
<path d="M110.086 10.2812V9.96094C110.086 9.51302 110.227 9.14323 110.508 8.85156C110.794 8.5599 111.182 8.41406 111.672 8.41406C112.167 8.41406 112.557 8.5599 112.844 8.85156C113.13 9.14323 113.273 9.51302 113.273 9.96094V10.2812C113.273 10.724 113.13 11.0911 112.844 11.3828C112.562 11.6693 112.174 11.8125 111.68 11.8125C111.19 11.8125 110.802 11.6693 110.516 11.3828C110.229 11.0911 110.086 10.724 110.086 10.2812Z" fill="#1F1E1E"/>
<g clip-path="url(#clip1_4_2055)">
<path d="M19.9187 10.8165V15.5066H18.4415V3.92412H22.3592C22.8269 3.91428 23.2918 3.99782 23.7272 4.16992C24.1626 4.34202 24.5599 4.59927 24.8961 4.92683C25.2357 5.2345 25.506 5.61183 25.6887 6.03345C25.8715 6.45507 25.9626 6.91122 25.9558 7.37124C25.9655 7.83372 25.8759 8.29284 25.693 8.71715C25.51 9.14146 25.2382 9.52091 24.8961 9.82951C24.211 10.4875 23.3654 10.8162 22.3592 10.8156H19.9187V10.8165ZM19.9187 5.3501V9.3933H22.3959C22.6675 9.40141 22.9378 9.35234 23.1894 9.24922C23.4411 9.1461 23.6687 8.99121 23.8575 8.79445C24.0454 8.61048 24.1947 8.39044 24.2966 8.14734C24.3986 7.90423 24.4512 7.643 24.4512 7.37909C24.4512 7.11518 24.3986 6.85395 24.2966 6.61085C24.1947 6.36775 24.0454 6.14771 23.8575 5.96374C23.671 5.76284 23.4443 5.60415 23.1923 5.4982C22.9403 5.39224 22.6689 5.34145 22.3959 5.34917H19.9187V5.3501Z" fill="#5F6368"/>
<path d="M29.3598 7.32324C30.4516 7.32324 31.3134 7.61713 31.9453 8.20489C32.5771 8.79266 32.8927 9.59853 32.8921 10.6225V15.5067H31.4792V14.4069H31.4149C30.8033 15.3126 29.9898 15.7655 28.9744 15.7655C28.1077 15.7655 27.3826 15.5067 26.799 14.9892C26.519 14.7516 26.2951 14.4541 26.1437 14.1184C25.9923 13.7827 25.9171 13.4171 25.9237 13.0484C25.9237 12.2284 26.2314 11.5762 26.8467 11.092C27.4621 10.6077 28.2835 10.365 29.3111 10.3637C30.1883 10.3637 30.9106 10.5255 31.4783 10.8489V10.5088C31.4799 10.2575 31.426 10.0089 31.3205 9.78111C31.215 9.55333 31.0605 9.35206 30.8681 9.1919C30.4775 8.83691 29.9684 8.64321 29.4423 8.64941C28.6172 8.64941 27.9643 8.99998 27.4835 9.70111L26.1825 8.87583C26.8981 7.84077 27.9572 7.32324 29.3598 7.32324ZM27.4486 13.0808C27.4476 13.2701 27.4916 13.457 27.5768 13.6258C27.662 13.7946 27.7861 13.9404 27.9386 14.0511C28.2653 14.31 28.6708 14.4471 29.0863 14.4393C29.7097 14.4382 30.3072 14.1883 30.7479 13.7443C31.2373 13.2804 31.4819 12.7361 31.4819 12.1113C31.0213 11.7417 30.3791 11.5568 29.5552 11.5568C28.9551 11.5568 28.4548 11.7025 28.0542 11.994C27.6495 12.2897 27.4486 12.6492 27.4486 13.0808Z" fill="#5F6368"/>
<path d="M41.0027 7.58203L36.0703 19H34.5454L36.3758 15.0049L33.1324 7.58203H34.7381L37.0823 13.2749H37.1144L39.3943 7.58203H41.0027Z" fill="#5F6368"/>
<path d="M13.9495 9.80561C13.9501 9.35217 13.912 8.89952 13.8357 8.45264H7.60596V11.0153H11.1741C11.1011 11.4246 10.9465 11.8148 10.7198 12.1623C10.493 12.5098 10.1988 12.8075 9.85473 13.0374V14.7009H11.9842C13.2311 13.5429 13.9495 11.8304 13.9495 9.80561Z" fill="#4285F4"/>
<path d="M7.60598 16.3077C9.38867 16.3077 10.8897 15.7181 11.9843 14.7015L9.85476 13.038C9.26205 13.4428 8.4987 13.6739 7.60598 13.6739C5.88292 13.6739 4.42044 12.5039 3.89746 10.9272H1.70374V12.6416C2.25356 13.7436 3.09665 14.67 4.1389 15.3174C5.18114 15.9648 6.3815 16.3077 7.60598 16.3077Z" fill="#34A853"/>
<path d="M3.89739 10.9273C3.62091 10.1012 3.62091 9.20649 3.89739 8.38033V6.66602H1.70366C1.24113 7.59309 1.00024 8.61627 1.00024 9.65383C1.00024 10.6914 1.24113 11.7146 1.70366 12.6416L3.89739 10.9273Z" fill="#FBBC04"/>
<path d="M7.60598 5.63381C8.54805 5.6183 9.45834 5.97683 10.1401 6.6319L12.0255 4.73275C10.83 3.60165 9.24611 2.98065 7.60598 2.99995C6.3815 3 5.18114 3.34286 4.1389 3.99024C3.09665 4.63763 2.25356 5.56405 1.70374 6.66609L3.89746 8.38041C4.42044 6.80379 5.88292 5.63381 7.60598 5.63381Z" fill="#EA4335"/>
</g>
<path d="M144.36 6.27246H141.051C140.825 6.27246 140.632 6.43731 140.597 6.66131L139.258 15.1641C139.232 15.3319 139.361 15.4831 139.531 15.4831H141.111C141.337 15.4831 141.53 15.3183 141.565 15.0938L141.926 12.8005C141.961 12.576 142.154 12.4111 142.38 12.4111H143.428C145.608 12.4111 146.866 11.3542 147.194 9.25961C147.342 8.34325 147.2 7.62325 146.772 7.11901C146.302 6.56531 145.468 6.27246 144.36 6.27246ZM144.742 9.37792C144.561 10.5677 143.654 10.5677 142.776 10.5677H142.277L142.627 8.34567C142.648 8.21137 142.764 8.11246 142.9 8.11246H143.129C143.726 8.11246 144.29 8.11246 144.581 8.45379C144.755 8.65743 144.808 8.95998 144.742 9.37792Z" fill="#253B80"/>
<path d="M154.252 9.33927H152.667C152.532 9.33927 152.416 9.43818 152.395 9.57249L152.325 10.0166L152.214 9.85564C151.871 9.35673 151.106 9.18994 150.342 9.18994C148.591 9.18994 147.096 10.5189 146.804 12.3832C146.653 13.3131 146.868 14.2023 147.395 14.8224C147.877 15.3926 148.568 15.6302 149.391 15.6302C150.801 15.6302 151.584 14.7211 151.584 14.7211L151.513 15.1623C151.487 15.331 151.616 15.4823 151.785 15.4823H153.213C153.44 15.4823 153.631 15.3175 153.667 15.093L154.523 9.6583C154.551 9.49103 154.421 9.33927 154.252 9.33927ZM152.043 12.4297C151.89 13.3369 151.172 13.9458 150.255 13.9458C149.795 13.9458 149.427 13.7979 149.191 13.5177C148.957 13.2394 148.868 12.8433 148.942 12.4021C149.085 11.5027 149.816 10.8738 150.718 10.8738C151.168 10.8738 151.534 11.0236 151.775 11.3063C152.016 11.5919 152.112 11.9904 152.043 12.4297Z" fill="#253B80"/>
<path d="M162.692 9.33936H161.099C160.947 9.33936 160.804 9.41499 160.718 9.54154L158.522 12.7832L157.591 9.66808C157.533 9.47317 157.353 9.33936 157.15 9.33936H155.585C155.395 9.33936 155.263 9.52554 155.323 9.70493L157.077 14.8627L155.428 17.1954C155.298 17.3791 155.429 17.6317 155.653 17.6317H157.244C157.395 17.6317 157.536 17.558 157.622 17.4339L162.918 9.7733C163.045 9.59002 162.915 9.33936 162.692 9.33936Z" fill="#253B80"/>
<path d="M167.964 6.27246H164.654C164.428 6.27246 164.236 6.43731 164.2 6.66131L162.862 15.1641C162.835 15.3319 162.965 15.4831 163.134 15.4831H164.832C164.99 15.4831 165.125 15.3677 165.15 15.2106L165.53 12.8005C165.564 12.576 165.757 12.4111 165.983 12.4111H167.031C169.211 12.4111 170.468 11.3542 170.797 9.25961C170.946 8.34325 170.803 7.62325 170.375 7.11901C169.905 6.56531 169.072 6.27246 167.964 6.27246ZM168.346 9.37792C168.165 10.5677 167.258 10.5677 166.38 10.5677H165.881L166.232 8.34567C166.253 8.21137 166.368 8.11246 166.504 8.11246H166.733C167.33 8.11246 167.894 8.11246 168.186 8.45379C168.359 8.65743 168.412 8.95998 168.346 9.37792Z" fill="#179BD7"/>
<path d="M177.855 9.33927H176.271C176.135 9.33927 176.02 9.43818 175.999 9.57249L175.929 10.0166L175.818 9.85564C175.475 9.35673 174.71 9.18994 173.947 9.18994C172.196 9.18994 170.701 10.5189 170.409 12.3832C170.258 13.3131 170.473 14.2023 170.999 14.8224C171.483 15.3926 172.173 15.6302 172.995 15.6302C174.406 15.6302 175.189 14.7211 175.189 14.7211L175.118 15.1623C175.091 15.331 175.221 15.4823 175.391 15.4823H176.818C177.044 15.4823 177.236 15.3175 177.272 15.093L178.129 9.6583C178.155 9.49103 178.025 9.33927 177.855 9.33927ZM175.646 12.4297C175.494 13.3369 174.775 13.9458 173.858 13.9458C173.399 13.9458 173.03 13.7979 172.794 13.5177C172.56 13.2394 172.472 12.8433 172.546 12.4021C172.689 11.5027 173.419 10.8738 174.321 10.8738C174.771 10.8738 175.137 11.0236 175.378 11.3063C175.621 11.5919 175.716 11.9904 175.646 12.4297Z" fill="#179BD7"/>
<path d="M179.723 6.50567L178.365 15.1641C178.339 15.3319 178.468 15.4831 178.637 15.4831H180.003C180.23 15.4831 180.422 15.3183 180.457 15.0938L181.796 6.59149C181.823 6.42373 181.693 6.27197 181.524 6.27197H179.995C179.86 6.27246 179.744 6.37137 179.723 6.50567Z" fill="#179BD7"/>
<path d="M125.516 17.1354L125.769 15.5247L125.205 15.5116H122.513L124.384 3.62652C124.39 3.59064 124.409 3.55719 124.436 3.53343C124.464 3.50967 124.499 3.49658 124.536 3.49658H129.075C130.581 3.49658 131.621 3.81076 132.164 4.43089C132.419 4.72179 132.581 5.02579 132.659 5.36034C132.741 5.71137 132.743 6.13076 132.663 6.64228L132.657 6.67961V7.00737L132.911 7.15185C133.126 7.26579 133.296 7.39622 133.427 7.54555C133.644 7.79428 133.785 8.1104 133.845 8.48519C133.906 8.87064 133.886 9.32931 133.785 9.84858C133.669 10.4459 133.481 10.9662 133.228 11.3919C132.995 11.7841 132.697 12.1094 132.345 12.3616C132.008 12.6011 131.608 12.7829 131.155 12.8992C130.717 13.0137 130.217 13.0714 129.669 13.0714H129.316C129.063 13.0714 128.818 13.1625 128.625 13.3259C128.432 13.4927 128.304 13.7206 128.265 13.9698L128.239 14.1148L127.791 16.9536L127.771 17.0578C127.766 17.0908 127.757 17.1072 127.743 17.1184C127.731 17.1286 127.714 17.1354 127.697 17.1354H125.516Z" fill="#253B80"/>
<path d="M133.152 6.71729C133.139 6.80407 133.123 6.8928 133.106 6.98395C132.507 10.0632 130.46 11.127 127.844 11.127H126.513C126.193 11.127 125.923 11.3597 125.873 11.6758L125.192 16.0084L124.999 17.2366C124.966 17.4441 125.126 17.6312 125.335 17.6312H127.697C127.976 17.6312 128.214 17.4276 128.258 17.1512L128.281 17.031L128.726 14.2033L128.754 14.0482C128.798 13.7709 129.036 13.5672 129.316 13.5672H129.669C131.957 13.5672 133.748 12.6363 134.272 9.9425C134.491 8.81716 134.377 7.87753 133.799 7.21668C133.624 7.01741 133.406 6.85207 133.152 6.71729Z" fill="#179BD7"/>
<path d="M132.526 6.46723C132.435 6.44056 132.34 6.41632 132.244 6.3945C132.146 6.37317 132.047 6.35426 131.944 6.33777C131.585 6.27959 131.192 6.25195 130.77 6.25195H127.213C127.125 6.25195 127.042 6.27183 126.967 6.30771C126.803 6.38674 126.681 6.54238 126.652 6.73292L125.895 11.5358L125.873 11.676C125.923 11.3598 126.193 11.1271 126.513 11.1271H127.844C130.46 11.1271 132.507 10.0629 133.106 6.98407C133.124 6.89292 133.139 6.8042 133.152 6.71741C133.001 6.63692 132.837 6.56807 132.66 6.50941C132.617 6.49486 132.572 6.4808 132.526 6.46723Z" fill="#222D65"/>
<path d="M126.652 6.73285C126.681 6.5423 126.803 6.38667 126.967 6.30812C127.042 6.27224 127.125 6.25236 127.213 6.25236H130.77C131.192 6.25236 131.585 6.28 131.944 6.33818C132.047 6.35467 132.146 6.37358 132.244 6.39491C132.34 6.41673 132.435 6.44097 132.526 6.46764C132.572 6.48121 132.617 6.49527 132.661 6.50933C132.837 6.568 133.001 6.63733 133.153 6.71733C133.331 5.57939 133.151 4.80461 132.537 4.10303C131.86 3.33067 130.639 3 129.075 3H124.536C124.217 3 123.945 3.23273 123.895 3.54933L122.005 15.5566C121.968 15.7942 122.15 16.0085 122.39 16.0085H125.192L125.895 11.5358L126.652 6.73285Z" fill="#253B80"/>
<path d="M50.0859 10.2812V9.96094C50.0859 9.51302 50.2266 9.14323 50.5078 8.85156C50.7943 8.5599 51.1823 8.41406 51.6719 8.41406C52.1667 8.41406 52.5573 8.5599 52.8438 8.85156C53.1302 9.14323 53.2734 9.51302 53.2734 9.96094V10.2812C53.2734 10.724 53.1302 11.0911 52.8438 11.3828C52.5625 11.6693 52.1745 11.8125 51.6797 11.8125C51.1901 11.8125 50.8021 11.6693 50.5156 11.3828C50.2292 11.0911 50.0859 10.724 50.0859 10.2812Z" fill="#1F1E1E"/>
<defs>
<clipPath id="clip0_4_2055">
<rect width="39" height="16" fill="white" transform="translate(62 3)"/>
</clipPath>
<clipPath id="clip1_4_2055">
<rect width="40" height="16" fill="white" transform="translate(1 3)"/>
</clipPath>
</defs>
</svg>
